# AST/ASF file generated using VICON BodyLanguage
# -----------------------------------------------
:version 1.10
:name VICON
:units
  mass 1.0
  length 0.45
  angle deg
:documentation
   .ast/.asf automatically generated from VICON data using
   VICON BodyBuilder and BodyLanguage model FoxedUp or BRILLIANT.MOD
:root
   order TX TY TZ RX RY RZ
   axis XYZ
   position 0 0 0  
   orientation 0 0 0 
:bonedata
  begin
     id 1 
     name lhipjoint
     direction 0.62366 -0.717238 0.310833 
     length 2.53602 
     axis 0 0 0  XYZ
  end
  begin
     id 2 
     name lfemur
     direction 0.34202 -0.939693 0  
     length 7.40817  
     axis 0 0 20  XYZ
    dof rx ry rz
    limits (-160.0 20.0)
           (-70.0 70.0)
           (-60.0 70.0)
  end
  begin
     id 3 
     name ltibia
     direction 0.34202 -0.939693 0   
     length 7.7045   
     axis 0 0 20   XYZ
    dof rx
    limits (-10.0 170.0)
  end
  begin
     id 4 
     name lfoot
     direction 0.0673888 -0.185149 0.980397   
     length 2.09456   
     axis -90 7.62852e-016 20   XYZ
    dof rx rz
    limits (-45.0 90.0)
           (-70.0 20.0)
  end
  begin
     id 5 
     name ltoes
     direction 1.53575e-011 -4.21994e-011 1   
     length 1.05543   
     axis -90 7.62852e-016 20   XYZ
    dof rx
    limits (-90.0 20.0)
  end
  begin
     id 6 
     name rhipjoint
     direction -0.489018 -0.800347 0.346851   
     length 2.27268  
     axis 0 0 0  XYZ 
  end
  begin
     id 7 
     name rfemur
     direction -0.34202 -0.939693 0   
     length 7.55487   
     axis 0 0 -20   XYZ
    dof rx ry rz
    limits (-160.0 20.0)
           (-70.0 70.0)
           (-70.0 60.0)
  end
  begin
     id 8 
     name rtibia
     direction -0.34202 -0.939693 0   
     length 7.78969   
     axis 0 0 -20   XYZ
    dof rx
    limits (-10.0 170.0)
 end
 begin
     id 9 
     name rfoot
     direction -0.0859318 -0.236096 0.967923   
     length 2.19143  
     axis -90 -7.62852e-016 -20   XYZ
    dof rx rz
    limits (-45.0 90.0)
           (-20.0 70.0)
  end
  begin
     id 10 
     name rtoes
     direction -1.53538e-011 -4.21989e-011 1   
     length 1.09845   
     axis -90 -7.62852e-016 -20   XYZ
    dof rx
    limits (-90.0 20.0)
  end
  begin
     id 11 
     name lowerback
     direction -0.00762546 0.998978 -0.0445553   
     length 1.98161   
     axis 0 0 0   XYZ
    dof rx ry rz
    limits (-20.0 45.0)
           (-30.0 30.0)
           (-30.0 30.0)
  end
  begin
     id 12 
     name upperback
     direction 0.0422361 0.998867 -0.0219156   
     length 1.97558   
     axis 0 0 0   XYZ
    dof rx ry rz
    limits (-20.0 45.0)
           (-30.0 30.0)
           (-30.0 30.0)
  end
  begin
     id 13 
     name thorax
     direction 0.0442465 0.999021 7.47603e-005   
     length 1.97799   
     axis 0 0 0   XYZ
    dof rx ry rz
    limits (-20.0 45.0)
           (-30.0 30.0)
           (-30.0 30.0)
  end
  begin
     id 14 
     name lowerneck
     direction 0.00312169 0.984641 0.174564   
     length 1.78995   
     axis 0 0 0   XYZ
    dof rx ry rz
    limits (-20.0 45.0)
           (-30.0 30.0)
           (-30.0 30.0)
  end
  begin
     id 15 
     name upperneck
     direction -0.0383028 0.985255 -0.166749   
     length 1.83053   
     axis 0 0 0   XYZ
    dof rx ry rz
    limits (-20.0 45.0)
           (-30.0 30.0)
           (-30.0 30.0)
  end
  begin
     id 16
     name head
     direction -0.0129546 0.997059 -0.0755386  
     length 1.84088  
     axis 0 0 0   XYZ
    dof rx ry rz
    limits (-20.0 45.0)
           (-30.0 30.0)
           (-30.0 30.0)
  end
  begin
     id 17 
     name lclavicle
     direction 0.912857 0.370519 -0.171488  
     length 3.51279  
     axis 0 0 0   XYZ
    dof ry rz
    limits (-20.0 10.0)
           (0.0 20.0)
  end
  begin
     id 18 
     name lhumerus
     direction 1 -4.48962e-011 3.64361e-027   
     length 4.95663   
     axis 180 -30 -90   XYZ
    dof rx ry rz
    limits (-60.0 90.0)
           (-90.0 90.0)
           (-90.0 90.0)
  end
  begin
     id 19
     name lradius
     direction 1 -4.48974e-011 5.97202e-027   
     length 3.38177   
     axis 180 -30 -90   XYZ
    dof rx
    limits (-10.0 170.0)
  end
  begin
     id 20
     name lwrist
     direction 1 -4.4896e-011 9.83288e-027   
     length 1.69088   
     axis -9.31221e-015 90 90   XYZ
    dof ry
    limits (-180.0 0.0)
 end
  begin
     id 21 
     name lhand
     direction 1 -4.4902e-011 1.96551e-026   
     length 0.662909   
     axis -1.25475e-014 90 90   XYZ
    dof rx rz
    limits (-90.0 90.0)
           (-45.0 45.0)
  end
  begin
     id 22 
     name lfingers
     direction 1 -4.48971e-011 3.93277e-026   
     length 0.534454   
     axis -2.50945e-014 90 90   XYZ
    dof rx
    limits (0.0 90.0)
  end
  begin
     id 23
     name lthumb
     direction 0.707107 -6.34933e-011 0.707107   
     length 0.767373   
     axis -90 45 -4.80359e-014   XYZ
    dof rx rz
    limits (-45.0 45.0)
           (-45.0 45.0)
  end
  begin
     id 24 
     name rclavicle
     direction -0.900919 0.395364 -0.178976   
     length 3.40627  
     axis 0 0 0   XYZ 
    dof ry rz
    limits (-10.0 20.0)
           (-20.0 0.0)
  end
  begin
     id 25 
     name rhumerus
     direction -1 -4.48969e-011 1.03875e-027  
     length 5.08365   
     axis 180 30 90   XYZ
    dof rx ry rz
    limits (-90.0 60.0)
           (-90.0 90.0)
           (-90.0 90.0)
  end
  begin
     id 26 
     name rradius
     direction -1 -4.48951e-011 5.02733e-027   
     length 3.35984   
     axis 180 30 90   XYZ
    dof rx
    limits (-10.0 170.0)
  end
  begin
     id 27 
     name rwrist
     direction -1 -4.49011e-011 9.82828e-027   
     length 1.67992   
     axis -9.31221e-015 -90 -90   XYZ
    dof ry
    limits (-180.0 0.0)
  end
  begin
     id 28
     name rhand
     direction -1 -4.48894e-011 1.96774e-026   
     length 0.820764   
     axis -1.25475e-014 -90 -90   XYZ
    dof rx rz
    limits (-90.0 90.0)
           (-45.0 45.0)
  end
  begin
     id 29
     name rfingers
     direction -1 -4.49095e-011 3.92833e-026   
     length 0.661721   
     axis -2.50945e-014 -90 -90   XYZ
    dof rx
    limits (0.0 90.0)
  end
  begin
     id 30
     name rthumb
     direction -0.707107 -6.34881e-011 0.707107   
     length 0.950103   
     axis -90 -45 4.80359e-014   XYZ
    dof rx rz
    limits (-45.0 45.0)
           (-45.0 45.0)
  end
:hierarchy
  begin
    root lhipjoint rhipjoint lowerback
    lhipjoint lfemur
    lfemur ltibia
    ltibia lfoot
    lfoot ltoes
    rhipjoint rfemur
    rfemur rtibia
    rtibia rfoot
    rfoot rtoes
    lowerback upperback
    upperback thorax
    thorax lowerneck lclavicle rclavicle
    lowerneck upperneck
    upperneck head
    lclavicle lhumerus
    lhumerus lradius
    lradius lwrist
    lwrist lhand lthumb
    lhand lfingers
    rclavicle rhumerus
    rhumerus rradius
    rradius rwrist
    rwrist rhand rthumb
    rhand rfingers
  end

#!OML:ASF I:\golf\golf\golf 2\Subject 1\2002-09-07\Subject1.ASF
:FULLY-SPECIFIED
:DEGREES
81
root -10.3288 17.9166 5.64427 -42.7945 84.6229 -57.787
lowerback 4.31868 1.50647 -1.49013
upperback 5.67189 2.0818 4.17848
thorax 3.23645 0.979039 5.14512
lowerneck -13.4535 -1.65256 1.70644
upperneck 43.1412 1.20916 -3.93401
head 18.5902 0.920066 -1.73368
rclavicle 1.23246e-014 7.95139e-015
rhumerus -10.8594 26.4002 -101.012
rradius 35.7572
rwrist -41.9838
rhand -28.4442 -10.086
rfingers 7.12502
rthumb -1.81494 -40.058
lclavicle 1.23246e-014 7.95139e-015
lhumerus -9.8854 -37.5113 106.332
lradius 35.9983
lwrist 50.3481
lhand -4.552 55.6844
lfingers 7.12502
lthumb 21.2238 84.5425
rfemur -31.1569 -1.74417 18.2466
rtibia 29.421
rfoot -8.63375 -2.11055
rtoes 1.37499
lfemur -29.0998 5.53493 -9.81807
ltibia 29.9373
lfoot -11.2306 0.0312674
ltoes -16.07
82
root -10.3288 17.9171 5.64579 -42.4786 84.6131 -57.461
lowerback 4.31755 1.50895 -1.56761
upperback 5.67438 2.08347 4.19999
thorax 3.23672 0.976618 5.21193
lowerneck -13.4358 -1.63925 1.71678
upperneck 43.1365 1.24979 -3.98492
head 18.5853 0.931476 -1.75207
rclavicle -1.90833e-014 -4.77083e-015
rhumerus -10.8969 26.5159 -100.991
rradius 35.8513
rwrist -42.1241
rhand -28.6673 -10.1044
rfingers 7.12502
rthumb -2.03035 -40.0745
lclavicle -1.90833e-014 -4.77083e-015
lhumerus -9.84377 -37.4606 106.368
lradius 35.9477
lwrist 50.3723
lhand -4.47523 55.6342
lfingers 7.12502
lthumb 21.2975 84.484
rfemur -31.1388 -1.82615 18.2755
rtibia 29.3836
rfoot -8.62095 -2.02155
rtoes 1.12523
lfemur -29.0729 5.54067 -9.81616
ltibia 29.9253
lfoot -11.2334 -0.0874244
ltoes -15.3765
83
root -10.3282 17.9211 5.64793 -42.0334 84.6299 -56.9706
lowerback 4.34304 1.524 -1.67818
upperback 5.68468 2.10153 4.19934
thorax 3.22825 0.981654 5.27322
lowerneck -13.4512 -1.64311 1.7687
upperneck 43.1811 1.25158 -4.02372
head 18.6181 0.937431 -1.78087
rclavicle 3.97569e-016 -8.74653e-015
rhumerus -10.9142 26.5299 -100.99
rradius 35.9222
rwrist -42.2434
rhand -28.8961 -10.1085
rfingers 7.12502
rthumb -2.25135 -40.0764
lclavicle 3.97569e-016 -8.74653e-015
lhumerus -9.82339 -37.5898 106.372
lradius 35.9592
lwrist 50.5216
lhand -4.55051 55.6574
lfingers 7.12502
lthumb 21.2252 84.5153
rfemur -31.0771 -1.78379 18.2263
rtibia 29.3582
rfoot -8.61891 -2.04763
rtoes 1.1928
lfemur -28.9459 5.31337 -9.72076
ltibia 29.9155
lfoot -11.2813 -0.299732
ltoes -13.0717
84
root -10.3287 17.9235 5.6475 -41.6514 84.6345 -56.563
lowerback 4.36854 1.52791 -1.76143
upperback 5.68698 2.10523 4.21478
thorax 3.21319 0.980501 5.33601
lowerneck -13.4697 -1.64357 1.7423
upperneck 43.2351 1.26511 -4.01374
head 18.6581 0.941708 -1.76996
rclavicle -6.36111e-015 -2.06736e-014
rhumerus -10.9306 26.5116 -100.963
rradius 35.9314
rwrist -42.271
rhand -28.9661 -9.96085
rfingers 7.12502
rthumb -2.31894 -39.928
lclavicle -6.36111e-015 -2.06736e-014
lhumerus -9.82604 -37.6658 106.389
lradius 36.0151
lwrist 50.6694
lhand -4.71643 55.7713
lfingers 7.12502
lthumb 21.0658 84.647
rfemur -31.0487 -1.71383 18.1713
rtibia 29.3565
rfoot -8.61079 -2.10396
rtoes 0.991578
lfemur -28.8489 5.11948 -9.64143
ltibia 29.9033
lfoot -11.3175 -0.369532
ltoes -11.6078
85
root -10.3299 17.9226 5.64615 -41.4823 84.6684 -56.4159
lowerback 4.36027 1.52376 -1.75009
upperback 5.67216 2.09936 4.17899
thorax 3.20425 0.97849 5.29174
lowerneck -13.4801 -1.65137 1.71927
upperneck 43.2575 1.24266 -3.96489
head 18.6733 0.936006 -1.74704
rclavicle 1.43125e-014 3.10104e-014
rhumerus -10.927 26.382 -100.967
rradius 35.9054
rwrist -42.1941
rhand -28.9121 -9.84825
rfingers 7.12502
rthumb -2.26685 -39.816
lclavicle 1.43125e-014 3.10104e-014
lhumerus -9.86632 -37.68 106.407
lradius 36.0257
lwrist 50.677
lhand -4.81713 55.8868
lfingers 7.12502
lthumb 20.9691 84.7733
rfemur -31.0944 -1.7439 18.1317
rtibia 29.3875
rfoot -8.61926 -2.09863
rtoes 0.595918
lfemur -28.9338 5.29213 -9.81248
ltibia 29.8835
lfoot -11.2313 -0.0443884
ltoes -14.0255
86
root -10.332 17.9186 5.64382 -41.4047 84.7171 -56.3788
lowerback 4.33336 1.50407 -1.70097
upperback 5.65546 2.0733 4.12361
thorax 3.2075 0.967694 5.20639
lowerneck -13.4785 -1.6581 1.7227
upperneck 43.2576 1.22412 -3.95051
head 18.6716 0.930746 -1.74435
rclavicle 9.54166e-015 2.26615e-014
rhumerus -10.963 26.4229 -100.984
rradius 35.9724
rwrist -42.2179
rhand -28.9365 -9.93766
rfingers 7.12502
rthumb -2.29038 -39.9051
lclavicle 9.54166e-015 2.26615e-014
lhumerus -9.84695 -37.6169 106.407
lradius 35.9351
lwrist 50.524
lhand -4.79937 55.96
lfingers 7.12502
lthumb 20.9862 84.8446
rfemur -31.1846 -1.8138 18.097
rtibia 29.4425
rfoot -8.6559 -2.07023
rtoes 0.834711
lfemur -29.0512 5.46329 -9.99359
ltibia 29.8683
lfoot -11.1521 0.270163
ltoes -16.6285
87
root -10.3346 17.9142 5.63765 -42.6303 84.8051 -57.6106
lowerback 4.34993 1.44762 -1.53685
upperback 5.65103 2.0018 4.0679
thorax 3.20687 0.938953 5.05532
lowerneck -13.4801 -1.6721 1.78674
upperneck 43.2512 1.17968 -3.95582
head 18.6653 0.92212 -1.7671
rclavicle -2.82274e-014 -2.22639e-014
rhumerus -11.0181 26.5402 -101.01
rradius 36.1328
rwrist -42.361
rhand -29.0565 -10.0134
rfingers 7.12502
rthumb -2.40628 -39.9795
lclavicle -2.82274e-014 -2.22639e-014
lhumerus -9.81536 -37.6773 106.343
lradius 35.9075
lwrist 50.4616
lhand -4.67082 55.9165
lfingers 7.12502
lthumb 21.1097 84.7874
rfemur -31.2122 -2.00615 18.1155
rtibia 29.4854
rfoot -8.69221 -1.99884
rtoes 1.4086
lfemur -29.1053 5.34826 -10.0077
ltibia 29.8674
lfoot -11.1315 0.208583
ltoes -17.1829
88
root -10.3364 17.9141 5.62993 -44.6115 84.9453 -59.5952
lowerback 4.3755 1.349 -1.35593
upperback 5.63735 1.87468 4.01451
thorax 3.19674 0.883219 4.89797
lowerneck -13.4886 -1.68116 1.8397
upperneck 43.2704 1.14072 -3.93963
head 18.6771 0.917273 -1.77713
rclavicle 1.66979e-014 1.31198e-014
rhumerus -11.0673 26.5878 -101.066
rradius 36.2378
rwrist -42.4797
rhand -29.0967 -9.99374
rfingers 7.12502
rthumb -2.44506 -39.9595
lclavicle 1.66979e-014 1.31198e-014
lhumerus -9.85929 -37.8385 106.239
lradius 36.0208
lwrist 50.5782
lhand -4.58804 55.8449
lfingers 7.12502
lthumb 21.1892 84.7069
rfemur -31.1851 -2.21455 18.1122
rtibia 29.4806
rfoot -8.68666 -1.98693
rtoes 1.67917
lfemur -29.1787 5.10054 -10.0013
ltibia 29.8792
lfoot -11.1248 0.200617
ltoes -17.2607
89
root -10.3377 17.9163 5.62764 -45.631 84.9402 -60.6544
lowerback 4.35118 1.27908 -1.27642
upperback 5.61398 1.78265 4.0264
thorax 3.19628 0.839931 4.86733
lowerneck -13.4542 -1.65643 1.82448
upperneck 43.2745 1.18692 -3.94281
head 18.6729 0.932444 -1.76723
rclavicle 0 -2.34566e-014
rhumerus -11.1029 26.6715 -101.122
rradius 36.2326
rwrist -42.5236
rhand -29.0066 -9.9583
rfingers 7.12502
rthumb -2.35812 -39.925
lclavicle 0 -2.34566e-014
lhumerus -9.86094 -37.8573 106.174
lradius 36.0378
lwrist 50.6187
lhand -4.54944 55.8313
lfingers 7.12502
lthumb 21.2263 84.6891
rfemur -31.1979 -2.26665 18.1828
rtibia 29.434
rfoot -8.65797 -2.0091
rtoes 1.35664
lfemur -29.2532 4.98305 -9.91624
ltibia 29.8965
lfoot -11.1006 0.430002
ltoes -17.3114
90
root -10.338 17.9188 5.62994 -46.0755 84.8056 -61.1278
lowerback 4.31554 1.281 -1.16217
upperback 5.60552 1.78705 4.03453
thorax 3.20954 0.846022 4.81169
lowerneck -13.3829 -1.63998 1.88909
upperneck 43.2238 1.19302 -3.96288
head 18.6213 0.941543 -1.78598
rclavicle -9.74045e-015 -5.12864e-014
rhumerus -11.0388 26.5139 -101.184
rradius 36.1177
rwrist -42.3967
rhand -28.8891 -9.8348
rfingers 7.12502
rthumb -2.24465 -39.8027
lclavicle -9.74045e-015 -5.12864e-014
lhumerus -9.82677 -37.9994 106.114
lradius 35.971
lwrist 50.6324
lhand -4.42888 55.8121
lfingers 7.12502
lthumb 21.3421 84.6569
rfemur -31.2048 -2.31225 18.3737
rtibia 29.3642
rfoot -8.65486 -1.90456
rtoes 1.12987
lfemur -29.2847 5.03205 -9.75423
ltibia 29.924
lfoot -11.0886 0.542311
ltoes -17.0998
91
root -10.3377 17.921 5.63147 -46.077 84.741 -61.1292
lowerback 4.29586 1.28945 -1.10254
upperback 5.61393 1.79928 4.01024
thorax 3.23029 0.854279 4.75291
lowerneck -13.345 -1.62899 1.98981
upperneck 43.1843 1.18886 -4.00564
head 18.5859 0.949491 -1.82471
rclavicle -2.32578e-014 9.54166e-015
rhumerus -11.0286 26.404 -101.213
rradius 36.1566
rwrist -42.3529
rhand -28.9133 -9.76938
rfingers 7.12502
rthumb -2.26799 -39.7371
lclavicle -2.32578e-014 9.54166e-015
lhumerus -9.80405 -38.1436 106.057
lradius 35.9612
lwrist 50.689
lhand -4.43318 55.8521
lfingers 7.12502
lthumb 21.3379 84.6973
rfemur -31.1741 -2.39146 18.4713
rtibia 29.2877
rfoot -8.63181 -1.77429
rtoes 1.6661
lfemur -29.28 5.08575 -9.69289
ltibia 29.9501
lfoot -11.1593 0.520235
ltoes -17.0807
